<?xml version="1.0" encoding="UTF-8" standalone="no" ?>
<!DOCTYPE svg PUBLIC "-//W3C//DTD SVG 1.1//EN" "http://www.w3.org/Graphics/SVG/1.1/DTD/svg11.dtd">
<svg xmlns="http://www.w3.org/2000/svg" xmlns:xlink="http://www.w3.org/1999/xlink" version="1.1" width="140.11509999999998" height="156.43629999999996" xml:space="preserve">
<desc>Created with Fabric.js 1.6.0-rc.1</desc>
<defs></defs>
<g style="stroke: none; stroke-width: 1; stroke-dasharray: none; stroke-linecap: butt; stroke-linejoin: miter; stroke-miterlimit: 10; fill: none; fill-rule: nonzero; opacity: 1;" transform="translate(10 10) scale(2.03 2.03)" >
  <path d="M 30.646 28.666 c 0 0.86 -0.698 1.559 -1.56 1.559 c -0.86 0 -1.558 -0.698 -1.558 -1.559 c 0 -0.861 0.697 -1.56 1.558 -1.56 C 29.948 27.106 30.646 27.805 30.646 28.666" style="stroke: none; stroke-width: 1; stroke-dasharray: none; stroke-linecap: butt; stroke-linejoin: miter; stroke-miterlimit: 10; fill: #29ABE2; fill-rule: nonzero; opacity: 1;" transform=" matrix(1 0 0 1 0 0) " stroke-linecap="round" />
  <path d="M 31.426 17.451 c 0 1.291 -1.048 2.339 -2.339 2.339 c -1.293 0 -2.339 -1.048 -2.339 -2.339 s 1.046 -2.339 2.339 -2.339 C 30.378 15.112 31.426 16.16 31.426 17.451" style="stroke: none; stroke-width: 1; stroke-dasharray: none; stroke-linecap: butt; stroke-linejoin: miter; stroke-miterlimit: 10; fill: #BED63A; fill-rule: nonzero; opacity: 1;" transform=" matrix(1 0 0 1 0 0) " stroke-linecap="round" />
  <path d="M 32.204 3.117 c 0 1.722 -1.395 3.117 -3.117 3.117 c -1.722 0 -3.116 -1.396 -3.116 -3.117 S 27.365 0 29.087 0 C 30.81 0 32.204 1.396 32.204 3.117" style="stroke: none; stroke-width: 1; stroke-dasharray: none; stroke-linecap: butt; stroke-linejoin: miter; stroke-miterlimit: 10; fill: #29ABE2; fill-rule: nonzero; opacity: 1;" transform=" matrix(1 0 0 1 0 0) " stroke-linecap="round" />
  <path d="M 25.947 23.768 c 0.537 0.933 0.219 2.123 -0.713 2.663 c -0.933 0.536 -2.125 0.217 -2.664 -0.716 c -0.537 -0.93 -0.218 -2.124 0.715 -2.661 C 24.217 22.518 25.408 22.837 25.947 23.768" style="stroke: none; stroke-width: 1; stroke-dasharray: none; stroke-linecap: butt; stroke-linejoin: miter; stroke-miterlimit: 10; fill: #FFB300; fill-rule: nonzero; opacity: 1;" transform=" matrix(1 0 0 1 0 0) " stroke-linecap="round" />
  <path d="M 20.234 12.313 c 0.752 1.307 0.307 2.974 -0.999 3.727 c -1.304 0.754 -2.973 0.308 -3.726 -0.999 c -0.753 -1.304 -0.307 -2.972 0.998 -3.725 C 17.812 10.563 19.48 11.01 20.234 12.313" style="stroke: none; stroke-width: 1; stroke-dasharray: none; stroke-linecap: butt; stroke-linejoin: miter; stroke-miterlimit: 10; fill: #FFB300; fill-rule: nonzero; opacity: 1;" transform=" matrix(1 0 0 1 0 0) " stroke-linecap="round" />
  <path d="M 16.698 23.251 c 1.118 0.647 1.502 2.079 0.856 3.193 c -0.646 1.119 -2.074 1.504 -3.193 0.857 c -1.117 -0.645 -1.501 -2.074 -0.855 -3.193 S 15.58 22.607 16.698 23.251" style="stroke: none; stroke-width: 1; stroke-dasharray: none; stroke-linecap: butt; stroke-linejoin: miter; stroke-miterlimit: 10; fill: #BED63A; fill-rule: nonzero; opacity: 1;" transform=" matrix(1 0 0 1 0 0) " stroke-linecap="round" />
  <path d="M 4.677 15.41 c 1.491 0.86 2.003 2.769 1.14 4.261 c -0.858 1.489 -2.768 2.001 -4.257 1.14 c -1.491 -0.862 -2.002 -2.767 -1.143 -4.259 C 1.279 15.061 3.186 14.551 4.677 15.41" style="stroke: none; stroke-width: 1; stroke-dasharray: none; stroke-linecap: butt; stroke-linejoin: miter; stroke-miterlimit: 10; fill: #29ABE2; fill-rule: nonzero; opacity: 1;" transform=" matrix(1 0 0 1 0 0) " stroke-linecap="round" />
  <path d="M 19.431 31.157 c 1.076 -0.003 1.948 0.869 1.948 1.946 c 0 1.076 -0.872 1.947 -1.948 1.95 c -1.075 0 -1.949 -0.874 -1.949 -1.949 C 17.481 32.026 18.354 31.157 19.431 31.157" style="stroke: none; stroke-width: 1; stroke-dasharray: none; stroke-linecap: butt; stroke-linejoin: miter; stroke-miterlimit: 10; fill: #FFB300; fill-rule: nonzero; opacity: 1;" transform=" matrix(1 0 0 1 0 0) " stroke-linecap="round" />
  <path d="M 6.656 30.376 c 1.507 0 2.729 1.224 2.729 2.728 c 0 1.508 -1.222 2.729 -2.729 2.729 c -1.506 0 -2.729 -1.221 -2.729 -2.728 C 3.928 31.596 5.15 30.376 6.656 30.376" style="stroke: none; stroke-width: 1; stroke-dasharray: none; stroke-linecap: butt; stroke-linejoin: miter; stroke-miterlimit: 10; fill: #FFB300; fill-rule: nonzero; opacity: 1;" transform=" matrix(1 0 0 1 0 0) " stroke-linecap="round" />
  <path d="M 24.464 33.973 c 0.747 -0.431 1.698 -0.174 2.13 0.571 c 0.43 0.747 0.174 1.698 -0.572 2.128 c -0.743 0.431 -1.698 0.177 -2.129 -0.568 C 23.462 35.356 23.719 34.404 24.464 33.973" style="stroke: none; stroke-width: 1; stroke-dasharray: none; stroke-linecap: butt; stroke-linejoin: miter; stroke-miterlimit: 10; fill: #29ABE2; fill-rule: nonzero; opacity: 1;" transform=" matrix(1 0 0 1 0 0) " stroke-linecap="round" />
  <path d="M 14.361 38.906 c 1.117 -0.646 2.548 -0.262 3.193 0.856 s 0.264 2.547 -0.856 3.193 c -1.118 0.645 -2.547 0.261 -3.192 -0.856 C 12.86 40.981 13.244 39.552 14.361 38.906" style="stroke: none; stroke-width: 1; stroke-dasharray: none; stroke-linecap: butt; stroke-linejoin: miter; stroke-miterlimit: 10; fill: #BED63A; fill-rule: nonzero; opacity: 1;" transform=" matrix(1 0 0 1 0 0) " stroke-linecap="round" />
  <path d="M 1.56 45.397 c 1.489 -0.859 3.398 -0.349 4.257 1.141 c 0.863 1.492 0.352 3.398 -1.14 4.258 c -1.491 0.861 -3.397 0.352 -4.26 -1.14 C -0.442 48.167 0.068 46.257 1.56 45.397" style="stroke: none; stroke-width: 1; stroke-dasharray: none; stroke-linecap: butt; stroke-linejoin: miter; stroke-miterlimit: 10; fill: #29ABE2; fill-rule: nonzero; opacity: 1;" transform=" matrix(1 0 0 1 0 0) " stroke-linecap="round" />
  <path d="M 22.57 40.493 c 0.539 -0.933 1.731 -1.254 2.664 -0.714 c 0.93 0.538 1.25 1.729 0.713 2.662 c -0.539 0.93 -1.731 1.25 -2.663 0.713 C 22.354 42.614 22.033 41.426 22.57 40.493" style="stroke: none; stroke-width: 1; stroke-dasharray: none; stroke-linecap: butt; stroke-linejoin: miter; stroke-miterlimit: 10; fill: #FFB300; fill-rule: nonzero; opacity: 1;" transform=" matrix(1 0 0 1 0 0) " stroke-linecap="round" />
  <path d="M 15.51 51.165 c 0.752 -1.305 2.421 -1.751 3.726 -0.999 c 1.304 0.755 1.751 2.424 0.999 3.729 c -0.754 1.304 -2.423 1.75 -3.727 0.998 C 15.203 54.138 14.756 52.471 15.51 51.165" style="stroke: none; stroke-width: 1; stroke-dasharray: none; stroke-linecap: butt; stroke-linejoin: miter; stroke-miterlimit: 10; fill: #FFB300; fill-rule: nonzero; opacity: 1;" transform=" matrix(1 0 0 1 0 0) " stroke-linecap="round" />
  <path d="M 26.748 48.76 c 0.001 -1.291 1.046 -2.342 2.339 -2.339 c 1.292 0 2.339 1.045 2.339 2.339 c 0 1.289 -1.048 2.336 -2.339 2.336 C 27.797 51.096 26.749 50.049 26.748 48.76" style="stroke: none; stroke-width: 1; stroke-dasharray: none; stroke-linecap: butt; stroke-linejoin: miter; stroke-miterlimit: 10; fill: #BED63A; fill-rule: nonzero; opacity: 1;" transform=" matrix(1 0 0 1 0 0) " stroke-linecap="round" />
  <path d="M 25.969 63.091 c 0 -1.721 1.396 -3.117 3.118 -3.117 c 1.721 0 3.117 1.396 3.117 3.117 c 0 1.722 -1.396 3.117 -3.117 3.12 C 27.365 66.208 25.969 64.813 25.969 63.091" style="stroke: none; stroke-width: 1; stroke-dasharray: none; stroke-linecap: butt; stroke-linejoin: miter; stroke-miterlimit: 10; fill: #29ABE2; fill-rule: nonzero; opacity: 1;" transform=" matrix(1 0 0 1 0 0) " stroke-linecap="round" />
  <path d="M 32.229 42.441 c -0.539 -0.933 -0.219 -2.124 0.711 -2.662 c 0.933 -0.54 2.123 -0.219 2.664 0.714 c 0.536 0.933 0.217 2.124 -0.714 2.661 C 33.957 43.691 32.766 43.373 32.229 42.441" style="stroke: none; stroke-width: 1; stroke-dasharray: none; stroke-linecap: butt; stroke-linejoin: miter; stroke-miterlimit: 10; fill: #FFB300; fill-rule: nonzero; opacity: 1;" transform=" matrix(1 0 0 1 0 0) " stroke-linecap="round" />
  <path d="M 37.939 53.895 c -0.753 -1.305 -0.305 -2.972 0.997 -3.727 c 1.306 -0.754 2.974 -0.308 3.727 0.999 c 0.754 1.304 0.308 2.974 -0.996 3.726 C 40.36 55.645 38.693 55.198 37.939 53.895" style="stroke: none; stroke-width: 1; stroke-dasharray: none; stroke-linecap: butt; stroke-linejoin: miter; stroke-miterlimit: 10; fill: #FFB300; fill-rule: nonzero; opacity: 1;" transform=" matrix(1 0 0 1 0 0) " stroke-linecap="round" />
  <path d="M 32.15 36.675 c -0.745 -0.433 -1 -1.384 -0.568 -2.131 c 0.429 -0.745 1.381 -1.002 2.127 -0.571 c 0.746 0.432 1.003 1.386 0.571 2.131 C 33.85 36.849 32.896 37.104 32.15 36.675" style="stroke: none; stroke-width: 1; stroke-dasharray: none; stroke-linecap: butt; stroke-linejoin: miter; stroke-miterlimit: 10; fill: #29ABE2; fill-rule: nonzero; opacity: 1;" transform=" matrix(1 0 0 1 0 0) " stroke-linecap="round" />
  <path d="M 41.476 42.956 c -1.117 -0.646 -1.503 -2.075 -0.856 -3.193 c 0.646 -1.12 2.075 -1.503 3.193 -0.856 c 1.117 0.645 1.501 2.075 0.854 3.196 C 44.023 43.217 42.595 43.601 41.476 42.956" style="stroke: none; stroke-width: 1; stroke-dasharray: none; stroke-linecap: butt; stroke-linejoin: miter; stroke-miterlimit: 10; fill: #BED63A; fill-rule: nonzero; opacity: 1;" transform=" matrix(1 0 0 1 0 0) " stroke-linecap="round" />
  <path d="M 53.495 50.798 c -1.488 -0.861 -2 -2.768 -1.137 -4.26 c 0.858 -1.489 2.766 -2.002 4.256 -1.141 c 1.492 0.859 2.003 2.77 1.142 4.259 C 56.896 51.147 54.986 51.657 53.495 50.798" style="stroke: none; stroke-width: 1; stroke-dasharray: none; stroke-linecap: butt; stroke-linejoin: miter; stroke-miterlimit: 10; fill: #29ABE2; fill-rule: nonzero; opacity: 1;" transform=" matrix(1 0 0 1 0 0) " stroke-linecap="round" />
  <path d="M 38.744 35.054 c -1.076 0 -1.95 -0.874 -1.95 -1.949 c 0 -1.076 0.873 -1.947 1.949 -1.95 c 1.076 0 1.95 0.874 1.95 1.95 C 40.69 34.18 39.82 35.054 38.744 35.054" style="stroke: none; stroke-width: 1; stroke-dasharray: none; stroke-linecap: butt; stroke-linejoin: miter; stroke-miterlimit: 10; fill: #FFB300; fill-rule: nonzero; opacity: 1;" transform=" matrix(1 0 0 1 0 0) " stroke-linecap="round" />
  <path d="M 51.518 35.832 c -1.506 0 -2.727 -1.221 -2.729 -2.728 c 0 -1.505 1.223 -2.729 2.728 -2.726 c 1.507 -0.003 2.729 1.221 2.73 2.726 C 54.246 34.611 53.024 35.832 51.518 35.832" style="stroke: none; stroke-width: 1; stroke-dasharray: none; stroke-linecap: butt; stroke-linejoin: miter; stroke-miterlimit: 10; fill: #FFB300; fill-rule: nonzero; opacity: 1;" transform=" matrix(1 0 0 1 0 0) " stroke-linecap="round" />
  <path d="M 43.813 27.302 c -1.118 0.646 -2.548 0.265 -3.193 -0.854 c -0.646 -1.12 -0.264 -2.549 0.856 -3.196 c 1.116 -0.644 2.548 -0.262 3.193 0.857 C 45.313 25.228 44.93 26.654 43.813 27.302" style="stroke: none; stroke-width: 1; stroke-dasharray: none; stroke-linecap: butt; stroke-linejoin: miter; stroke-miterlimit: 10; fill: #BED63A; fill-rule: nonzero; opacity: 1;" transform=" matrix(1 0 0 1 0 0) " stroke-linecap="round" />
  <path d="M 56.614 20.813 c -1.49 0.859 -3.397 0.35 -4.256 -1.142 c -0.863 -1.492 -0.352 -3.4 1.14 -4.261 c 1.49 -0.859 3.398 -0.35 4.259 1.142 C 58.617 18.041 58.106 19.948 56.614 20.813" style="stroke: none; stroke-width: 1; stroke-dasharray: none; stroke-linecap: butt; stroke-linejoin: miter; stroke-miterlimit: 10; fill: #29ABE2; fill-rule: nonzero; opacity: 1;" transform=" matrix(1 0 0 1 0 0) " stroke-linecap="round" />
  <path d="M 35.604 25.715 c -0.538 0.933 -1.73 1.252 -2.662 0.716 c -0.931 -0.54 -1.252 -1.73 -0.713 -2.663 c 0.537 -0.931 1.729 -1.25 2.661 -0.714 C 35.822 23.594 36.141 24.782 35.604 25.715" style="stroke: none; stroke-width: 1; stroke-dasharray: none; stroke-linecap: butt; stroke-linejoin: miter; stroke-miterlimit: 10; fill: #FFB300; fill-rule: nonzero; opacity: 1;" transform=" matrix(1 0 0 1 0 0) " stroke-linecap="round" />
  <path d="M 42.666 15.044 c -0.756 1.304 -2.423 1.75 -3.727 0.998 c -1.305 -0.755 -1.753 -2.424 -1 -3.725 c 0.754 -1.308 2.421 -1.754 3.728 -1.001 C 42.972 12.069 43.417 13.737 42.666 15.044" style="stroke: none; stroke-width: 1; stroke-dasharray: none; stroke-linecap: butt; stroke-linejoin: miter; stroke-miterlimit: 10; fill: #FFB300; fill-rule: nonzero; opacity: 1;" transform=" matrix(1 0 0 1 0 0) " stroke-linecap="round" />
</g>
</svg>